ffmpeg version 3.4.8-0ubuntu0.2 Copyright (c) 2000-2020 the FFmpeg developers
  built with gcc 7 (Ubuntu 7.5.0-3ubuntu1~18.04)
  configuration: --prefix=/usr --extra-version=0ubuntu0.2 --toolchain=hardened --libdir=/usr/lib/x86_64-linux-gnu --incdir=/usr/include/x86_64-linux-gnu --enable-gpl --disable-stripping --enable-avresample --enable-avisynth --enable-gnutls --enable-ladspa --enable-libass --enable-libbluray --enable-libbs2b --enable-libcaca --enable-libcdio --enable-libflite --enable-libfontconfig --enable-libfreetype --enable-libfribidi --enable-libgme --enable-libgsm --enable-libmp3lame --enable-libmysofa --enable-libopenjpeg --enable-libopenmpt --enable-libopus --enable-libpulse --enable-librubberband --enable-librsvg --enable-libshine --enable-libsnappy --enable-libsoxr --enable-libspeex --enable-libssh --enable-libtheora --enable-libtwolame --enable-libvorbis --enable-libvpx --enable-libwavpack --enable-libwebp --enable-libx265 --enable-libxml2 --enable-libxvid --enable-libzmq --enable-libzvbi --enable-omx --enable-openal --enable-opengl --enable-sdl2 --enable-libdc1394 --enable-libdrm --enable-libiec61883 --enable-chromaprint --enable-frei0r --enable-libopencv --enable-libx264 --enable-shared
  libavutil      55. 78.100 / 55. 78.100
  libavcodec     57.107.100 / 57.107.100
  libavformat    57. 83.100 / 57. 83.100
  libavdevice    57. 10.100 / 57. 10.100
  libavfilter     6.107.100 /  6.107.100
  libavresample   3.  7.  0 /  3.  7.  0
  libswscale      4.  8.100 /  4.  8.100
  libswresample   2.  9.100 /  2.  9.100
  libpostproc    54.  7.100 / 54.  7.100
[rawvideo @ 0x55f8d9b6ca20] Estimating duration from bitrate, this may be inaccurate
Input #0, rawvideo, from '../../SVC-Encoder-20220109T061506Z-001/SVC-Encoder/Dataset/RollerCoaster/ERP_8x8/tile_yuv/Tile_45_480x240.yuv':
  Duration: 00:00:10.00, start: 0.000000, bitrate: 41472 kb/s
    Stream #0:0: Video: rawvideo (I420 / 0x30323449), yuv420p, 480x240, 41472 kb/s, 30 tbr, 30 tbn, 30 tbc
Stream mapping:
  Stream #0:0 -> #0:0 (rawvideo (native) -> h264 (libx264))
Press [q] to stop, [?] for help
[libx264 @ 0x55f8d9b79c60] using cpu capabilities: MMX2 SSE2Fast LZCNT SSSE3 SSE4.2 AVX
[libx264 @ 0x55f8d9b79c60] profile High, level 2.1
Output #0, rawvideo, to 'RollerCoaster_Tile_45_480x240_x264_QP_28.h264':
  Metadata:
    encoder         : Lavf57.83.100
    Stream #0:0: Video: h264 (libx264), yuv420p, 480x240, q=-1--1, 30 fps, 30 tbn, 30 tbc
    Metadata:
      encoder         : Lavc57.107.100 libx264
    Side data:
      cpb: bitrate max/min/avg: 0/0/0 buffer size: 0 vbv_delay: -1
frame=  129 fps=0.0 q=34.0 PSNR=Y:nan U:nan V:nan *:nan size=      90kB time=00:00:02.86 bitrate= 257.1kbits/s speed=5.72x    frame=  249 fps=247 q=34.0 PSNR=Y:nan U:nan V:nan *:nan size=     206kB time=00:00:06.86 bitrate= 245.4kbits/s speed=6.82x    frame=  300 fps=221 q=34.0 LPSNR=Y:inf U:inf V:inf *:inf size=     293kB time=00:00:09.93 bitrate= 241.4kbits/s speed=7.33x    
video:293kB audio:0kB subtitle:0kB other streams:0kB global headers:0kB muxing overhead: 0.000000%
[libx264 @ 0x55f8d9b79c60] frame I:2     Avg QP:27.06  size: 11251  PSNR Mean Y:39.97 U:43.55 V:46.17 Avg:41.05 Global:41.04
[libx264 @ 0x55f8d9b79c60] frame P:82    Avg QP:29.06  size:  2254  PSNR Mean Y:37.79 U:43.87 V:46.12 Avg:39.14 Global:39.11
[libx264 @ 0x55f8d9b79c60] frame B:216   Avg QP:33.53  size:   428  PSNR Mean Y:37.71 U:44.09 V:46.24 Avg:39.08 Global:39.05
[libx264 @ 0x55f8d9b79c60] consecutive B-frames:  0.7%  7.3%  8.0% 84.0%
[libx264 @ 0x55f8d9b79c60] mb I  I16..4:  2.7% 73.9% 23.4%
[libx264 @ 0x55f8d9b79c60] mb P  I16..4:  0.6%  3.1%  0.7%  P16..4: 47.4% 22.7%  5.5%  0.0%  0.0%    skip:20.0%
[libx264 @ 0x55f8d9b79c60] mb B  I16..4:  0.0%  0.0%  0.0%  B16..8: 39.9%  4.7%  0.8%  direct: 0.4%  skip:54.1%  L0:36.9% L1:60.6% BI: 2.5%
[libx264 @ 0x55f8d9b79c60] 8x8 transform intra:71.2% inter:74.4%
[libx264 @ 0x55f8d9b79c60] coded y,uvDC,uvAC intra: 76.1% 76.1% 34.0% inter: 10.1% 7.4% 0.1%
[libx264 @ 0x55f8d9b79c60] i16 v,h,dc,p:  1% 65% 14% 19%
[libx264 @ 0x55f8d9b79c60] i8 v,h,dc,ddl,ddr,vr,hd,vl,hu:  4% 30% 13%  4% 12%  8% 16%  3%  9%
[libx264 @ 0x55f8d9b79c60] i4 v,h,dc,ddl,ddr,vr,hd,vl,hu:  6% 32% 14%  2% 11%  7% 21%  2%  5%
[libx264 @ 0x55f8d9b79c60] i8c dc,h,v,p: 38% 49%  6%  8%
[libx264 @ 0x55f8d9b79c60] Weighted P-Frames: Y:0.0% UV:0.0%
[libx264 @ 0x55f8d9b79c60] ref P L0: 59.5% 18.7% 14.7%  7.2%
[libx264 @ 0x55f8d9b79c60] ref B L0: 89.8%  8.5%  1.6%
[libx264 @ 0x55f8d9b79c60] ref B L1: 94.9%  5.1%
[libx264 @ 0x55f8d9b79c60] PSNR Mean Y:37.747 U:44.026 V:46.206 Avg:39.113 Global:39.080 kb/s:239.79
